<svg xmlns="http://www.w3.org/2000/svg" width="134.3" height="40.938" viewBox="0 0 134.3 40.938"><defs><style>.a{fill:#de5959;}</style></defs><g transform="translate(320.224 -249.978)"><path class="a" d="M-304.185,270.124l-.355-.357a.428.428,0,0,0-.73.3v5.1a.429.429,0,0,0,.429.427h5.1a.426.426,0,0,0,.3-.729.427.427,0,0,1,0-.6l5.422-5.437a.427.427,0,0,0,0-.6l-.494-.492a.427.427,0,0,1,.3-.728h5.095a.428.428,0,0,1,.428.427v5.1a.429.429,0,0,1-.731.3l-.344-.343a.417.417,0,0,0-.6,0l-9.141,9.137a.43.43,0,0,1-.6,0L-311.3,270.435a.426.426,0,0,1-.126-.3.427.427,0,0,1,.126-.3l15.482-15.482a.43.43,0,0,0,0-.6l-3.641-3.64a.429.429,0,0,0-.6,0L-320.1,270.146a.429.429,0,0,0,0,.6l20.041,20.041a.43.43,0,0,0,.6,0l20.04-20.041a.428.428,0,0,0,0-.6l-11.79-11.791a.428.428,0,0,0-.6,0l-11.773,11.767a.426.426,0,0,1-.3.126.426.426,0,0,1-.3-.126Zm92.51,5.071a1.827,1.827,0,0,0-1.336.557,1.819,1.819,0,0,0-.557,1.322,2,2,0,0,0,1.176,1.812,1.967,1.967,0,0,0,2.066-.449,1.836,1.836,0,0,0,.56-1.348,1.781,1.781,0,0,0-.56-1.336,1.84,1.84,0,0,0-1.35-.555v0Zm-30.455-14.406h-1.413a1.1,1.1,0,0,0-1.107,1.1v.788a6.921,6.921,0,0,0-5.106-2.345,7.067,7.067,0,0,0-5.487,2.446,8.8,8.8,0,0,0-2.194,6.111,9.1,9.1,0,0,0,2.19,6.227,7.218,7.218,0,0,0,5.594,2.445,7.222,7.222,0,0,0,5-2.181v1.558a1.373,1.373,0,0,0,1.371,1.372h2.413V262.052A1.265,1.265,0,0,0-242.129,260.789Zm-3.571,11.968a4.32,4.32,0,0,1-3.382,1.439,4.108,4.108,0,0,1-3.248-1.489,5.672,5.672,0,0,1-1.257-3.818,5.435,5.435,0,0,1,1.289-3.684,4.159,4.159,0,0,1,3.248-1.472,4.249,4.249,0,0,1,3.348,1.46,5.564,5.564,0,0,1,1.29,3.781,5.574,5.574,0,0,1-1.29,3.784h0Zm-11.737-9.217v-1.612a1.136,1.136,0,0,0-1.139-1.136h-1.489a1.135,1.135,0,0,0-1.138,1.136v.7a6.571,6.571,0,0,0-5.123-2.3,6.931,6.931,0,0,0-5.66,2.646,9.4,9.4,0,0,0-1.993,6.06,8.93,8.93,0,0,0,2.145,6.111,6.933,6.933,0,0,0,5.458,2.41,7.031,7.031,0,0,0,5.172-2.291v2.277q0,5.075-4.134,5.075a4.042,4.042,0,0,1-3.414-1.526,3.32,3.32,0,0,1-.5-.964,1.335,1.335,0,0,0-1.264-.9h-1.427a1.109,1.109,0,0,0-1.073,1.382,6.845,6.845,0,0,0,2.267,3.622A8.108,8.108,0,0,0-265.371,286a7.639,7.639,0,0,0,6.078-2.545,6.9,6.9,0,0,0,1.572-3.165,13.788,13.788,0,0,0,.209-1.55q.074-.876.074-2.033v-2.369a9.324,9.324,0,0,1-1.585-5.45,9.012,9.012,0,0,1,1.585-5.348h0Zm-4.771,9.088a4.138,4.138,0,0,1-3.415,1.568,4.063,4.063,0,0,1-3.383-1.558,5.72,5.72,0,0,1-1.12-3.648,5.778,5.778,0,0,1,1.12-3.684,4.062,4.062,0,0,1,3.383-1.588,4.206,4.206,0,0,1,3.3,1.455,5.487,5.487,0,0,1,1.275,3.8,5.617,5.617,0,0,1-1.156,3.651v0Zm36.085-11.828v-.012h-7.812v-4.783a1.113,1.113,0,0,0-1.114-1.114h-1.525a1.127,1.127,0,0,0-1.127,1.127v4.77h-1.608V264.3h1.606v14.009h2.148a1.614,1.614,0,0,0,1.145-.473,1.614,1.614,0,0,0,.473-1.145V264.3h3.863a7.9,7.9,0,0,1,1.114-1.613,6.972,6.972,0,0,1,2.836-1.891h0Zm19.221-5.909a2.351,2.351,0,0,0-1.723.721,2.341,2.341,0,0,0-.721,1.707,2.4,2.4,0,0,0,.721,1.759,2.378,2.378,0,0,0,1.742.718,2.306,2.306,0,0,0,1.722-.72,2.38,2.38,0,0,0,.722-1.741,2.309,2.309,0,0,0-.721-1.722A2.37,2.37,0,0,0-206.9,254.892Zm.763,7.742H-207.5a1.271,1.271,0,0,0-1.271,1.271v11.96a1.777,1.777,0,0,1,.425,1.2,1.8,1.8,0,0,1-.425,1.205v.673h2.425a1.344,1.344,0,0,0,1.343-1.346V263.762a1.13,1.13,0,0,0-1.132-1.127h0Zm17.7,2.31a8.523,8.523,0,0,0-6.195-2.493,8.46,8.46,0,0,0-6.161,2.479,8.1,8.1,0,0,0-2.528,6.01,8.445,8.445,0,0,0,2.478,6.229,8.3,8.3,0,0,0,6.144,2.51,8.644,8.644,0,0,0,6.246-2.461,8.274,8.274,0,0,0,2.528-6.144,8.313,8.313,0,0,0-2.511-6.131v0Zm-2.665,9.946a4.575,4.575,0,0,1-3.53,1.42,4.591,4.591,0,0,1-3.535-1.439A5.5,5.5,0,0,1-199.47,271a5.239,5.239,0,0,1,1.342-3.715,4.556,4.556,0,0,1,3.5-1.441,4.6,4.6,0,0,1,3.53,1.441,5.352,5.352,0,0,1,1.324,3.8,5.356,5.356,0,0,1-1.324,3.8v0Z" transform="translate(0 0)"/><path class="a" d="M787.534,403.933a4.9,4.9,0,0,1-1.31-3.2h10.8a.9.9,0,0,0,.906-.885,9.026,9.026,0,0,0-2.075-6.314,8.169,8.169,0,0,0-11.418.068,9.033,9.033,0,0,0-2.144,6.262,8.8,8.8,0,0,0,2.208,6.26,7.2,7.2,0,0,0,3.785,2.133,7.952,7.952,0,0,0,1.936.215c2.683.055,5.015.111,7.7.166l0-.393a1.837,1.837,0,0,1-.493-1.289,1.811,1.811,0,0,1,.507-1.27l0-.477c-2.117-.053-7.242-.1-7.447-.1a3.953,3.953,0,0,1-2.956-1.173v0h0Zm-.524-7.531a3.851,3.851,0,0,1,.847-.944,3.608,3.608,0,0,1,1.1-.6,3.9,3.9,0,0,1,1.29-.209,3.613,3.613,0,0,1,3.8,3.011h-7.57a4.467,4.467,0,0,1,.534-1.254Z" transform="translate(-1012.253 -129.701)"/></g></svg>