<svg xmlns="http://www.w3.org/2000/svg" width="185.09" height="40.937" viewBox="0 0 185.09 40.937"><defs><style>.a{fill:#ff007a;fill-rule:evenodd;}</style></defs><path class="a" d="M.756.908c4.623,5.668,9.7,12.789,10.521,13.94l.094.132c.438.611.8,1.065,1.073,1.41h0c.609.766.79.993.426,1.2a1.754,1.754,0,0,1-.9.224,1.528,1.528,0,0,1-1.006-.434c-.2-.19-1.552-2.176-3.4-5.067C6.16,10.1,4.979,8.268,4.947,8.238c-.074-.071-.073-.069,2.48,4.546,1.6,2.9,2.7,5.039,2.7,5.176,0,.279-.075.425-.416.809a4.7,4.7,0,0,0-1,2.845c-.205,1.667-.782,2.844-2.382,4.859A9.622,9.622,0,0,0,5,28.344a3.479,3.479,0,0,0-.413,1.69,5.31,5.31,0,0,0,.275,2.08,7.477,7.477,0,0,0,1,1.995,4.648,4.648,0,0,1,.768,1.551c0,.176.033.177.789,0a8.158,8.158,0,0,0,4.1-2.026,1.925,1.925,0,0,0,.635-1.607,1.582,1.582,0,0,0-.147-.88,3.847,3.847,0,0,0-1.467-1.44,3.35,3.35,0,0,1-1.745-2.27,3.968,3.968,0,0,1,.642-2.53,7.717,7.717,0,0,0,.915-3.332c.07-.891.167-1.243.42-1.525a1.572,1.572,0,0,1,1.157-.484,3.911,3.911,0,0,0,2.3-.946,2.03,2.03,0,0,0,.718-1.539l.024-.5-.271-.319C13.723,15.114.1,0,.039,0,.027,0,.349.408.756.908Zm6.422,30.03a.882.882,0,0,0-.267-1.155c-.35-.235-.894-.124-.894.182,0,.094.051.162.167.222.194.1.208.215.056.447s-.142.442.035.582A.606.606,0,0,0,7.178,30.938ZM13.849,9.317c-.437-.069-.456-.077-.25-.109a6.726,6.726,0,0,1,1.967.176A8.49,8.49,0,0,1,19.884,12.3l.387.435.553-.09a11.563,11.563,0,0,1,6.683.847,8.624,8.624,0,0,1,1.513.891,2.386,2.386,0,0,1,.14.594,3.731,3.731,0,0,1-.225,2.306.61.61,0,0,0-.062.667.638.638,0,0,0,.571.365c.493,0,1.023-.805,1.269-1.924l.1-.445L31,16.17a8.622,8.622,0,0,1,2.037,4.047l.037.307-.178-.279a3.431,3.431,0,0,0-1.01-1.071c-.711-.476-1.464-.637-3.456-.743a13.925,13.925,0,0,1-3.828-.584c-1.718-.566-2.585-1.319-4.626-4.024a19.663,19.663,0,0,0-2.024-2.4A7.21,7.21,0,0,0,13.849,9.317ZM29.425,12a4.935,4.935,0,0,1,.371-1.821,1.979,1.979,0,0,1,.179-.349,1.2,1.2,0,0,1-.083.315,4.177,4.177,0,0,0-.075,1.863c.138.95.217,1.087,1.211,2.114.466.481,1.009,1.089,1.206,1.349l.358.474-.358-.339a15.271,15.271,0,0,0-1.665-1.338c-.149-.077-.171-.076-.263.016s-.1.213-.114.818a4.609,4.609,0,0,1-.452,2.152c-.166.327-.192.257-.042-.112a2.969,2.969,0,0,0,.123-1.309c0-1.833-.217-2.274-1.481-3.028-.32-.191-.847-.467-1.172-.613a4.446,4.446,0,0,1-.573-.282,12.112,12.112,0,0,1,1.764.52c.738.287.859.324.949.289C29.367,12.7,29.4,12.519,29.425,12ZM13.381,10.592A7.521,7.521,0,0,0,14.7,15.135a4.2,4.2,0,0,0,2.543,1.773c.516.047.671-.116.437-.46a8.715,8.715,0,0,1-.828-1.529c-.065-.2-.208-.774-.316-1.285-.37-1.744-.734-2.423-1.575-2.939a5.04,5.04,0,0,0-1.34-.5l-.2-.037ZM28.348,24.324c-4.149-1.687-5.611-3.152-5.611-5.624a4.029,4.029,0,0,1,.028-.661,3.136,3.136,0,0,1,.357.267c.841.682,1.784.973,4.392,1.357a18.012,18.012,0,0,1,3.2.676,6.134,6.134,0,0,1,4.473,4.915,8.19,8.19,0,0,1-.131,2.633,5.091,5.091,0,0,1-.676,1.527c-.031.01-.062-.11-.07-.275a3.408,3.408,0,0,0-1.223-2.38C32.241,26.029,31.111,25.448,28.348,24.324Zm-3.113-.186a7.472,7.472,0,0,1,.2.887,3.62,3.62,0,0,1-2.725,4.237c-.214.066-1.056.233-1.872.37a10.733,10.733,0,0,0-3.128.834,4.9,4.9,0,0,0-1.123.676.738.738,0,0,0,.266-.064,12.22,12.22,0,0,1,3.551-.585c.626-.033,1.339-.085,1.583-.116a4.967,4.967,0,0,0,3.139-1.39A3.6,3.6,0,0,0,26,27.58a2.65,2.65,0,0,0,.147-1.136,2.69,2.69,0,0,0-.154-1.173,3.581,3.581,0,0,0-.669-1.229l-.2-.223Zm2.1,4.3a4.9,4.9,0,0,1-.376-3.431c.032-.115.084-.21.116-.21a1.118,1.118,0,0,1,.289.158c.254.173.763.464,2.121,1.211a10.506,10.506,0,0,1,3.316,2.48,5.418,5.418,0,0,1,1.1,2.549,8.76,8.76,0,0,1-.1,2.509,6.222,6.222,0,0,1-3.024,4.051,3.882,3.882,0,0,1-.441.221,1.671,1.671,0,0,1,.179-.46A4.177,4.177,0,0,0,30.7,34.24,13.97,13.97,0,0,0,29.015,31.2,20.582,20.582,0,0,1,27.337,28.437ZM16.953,32.363a11.186,11.186,0,0,0-5.2,2.532l-.458.391.4.064a5.594,5.594,0,0,1,4.127,2.143,3.3,3.3,0,0,0,1.819,1.247A1.956,1.956,0,0,0,20.018,37.6a2.122,2.122,0,0,0-.043-1.435,1.5,1.5,0,0,0-2.243-.481A.78.78,0,0,0,18,37.056c.141.03.137.023-.036-.056a.57.57,0,0,1-.388-.565.911.911,0,0,1,1.388-.688,1,1,0,0,1,.686,1.029,1.276,1.276,0,0,1-1.439,1.287,2.109,2.109,0,0,1-1.191-.629,1.6,1.6,0,0,1,.536-2.482,2.512,2.512,0,0,1,2.438.224c.859.568,1.224,1.088,1.964,2.793a12.633,12.633,0,0,0,.689,1.389,3.008,3.008,0,0,0,2.553,1.58,3.064,3.064,0,0,0,1.506-.369,3.282,3.282,0,0,0,.908-.614,1.44,1.44,0,0,0-.362.114,3.118,3.118,0,0,1-2.879-.077,2.85,2.85,0,0,1-.912-1.664c-.029-.131-.127-.709-.216-1.285a6.187,6.187,0,0,0-.952-2.868,4.628,4.628,0,0,0-2.634-1.7A8.028,8.028,0,0,0,16.953,32.363ZM14.509,21.082a1.893,1.893,0,0,1,1.138-1.254,2.211,2.211,0,0,1,1.286.123,1.649,1.649,0,0,1,.941,1.516c-.115.618-1.107,1.112-2.247,1.12-.583,0-.8-.075-1.02-.375A1.8,1.8,0,0,1,14.509,21.082Zm2.272-.91a.469.469,0,0,1,.2.71,1.107,1.107,0,0,1-.77.339c-.412,0-.861-.3-.861-.566C15.349,20.111,16.211,19.82,16.78,20.171Zm89.4,1.556c-.93-3.095.6-5.662,3.878-6.487a22.534,22.534,0,0,1,5.919.149c.268.1.384.494.387,1.3a8.829,8.829,0,0,0,.153,1.712c.125.466.052.557-.439.55-.445-.007-.713-.267-1.089-1.056-.6-1.259-1.325-1.659-3.017-1.664-2.159-.006-3.739,1.448-3.482,3.2.168,1.143,1.31,2.268,3.873,3.814,2.439,1.471,3.862,2.681,4.429,3.764,1.517,2.9.222,6-3.157,7.56a10.185,10.185,0,0,1-6.685.191l-1.309-.445V32.23c0-1.894.045-2.092.477-2.092.361,0,.517.239.644.986a3.511,3.511,0,0,0,3.741,2.988,3.78,3.78,0,0,0,3.877-3.03,2.3,2.3,0,0,0-.26-2.056c-.534-1.1-1.455-1.83-4.58-3.634A7,7,0,0,1,106.183,21.728ZM44.914,16.476c-.426,0-.593-.139-.593-.5,0-.473.166-.5,3.508-.5,3.1,0,3.5.047,3.428.4-.045.222-.473.529-.953.683l-.873.28-.074,6.334a45.466,45.466,0,0,0,.211,7.328c.566,1.971,2.292,3.105,4.727,3.105a4.976,4.976,0,0,0,3.93-1.574c1.338-1.266,1.552-2.468,1.548-8.718,0-6.165-.111-6.674-1.435-6.8-.6-.058-.8-.2-.8-.559,0-.449.2-.481,2.991-.481,2.825,0,2.991.028,2.991.5a.44.44,0,0,1-.436.5c-1.154.01-1.176.12-1.331,6.88-.161,7.02-.312,7.851-1.734,9.571a7.805,7.805,0,0,1-2.174,1.6c-1.28.626-1.687.7-3.921.694a7.607,7.607,0,0,1-3.739-.572,6.378,6.378,0,0,1-3.2-2.9c-.5-.929-.546-1.432-.662-7.725C46.182,16.824,46.118,16.476,44.914,16.476Zm23.326,0c-.57,0-.736-.112-.736-.5,0-.466.159-.5,2.555-.476l2.555.02,1.223,1.408c.672.774,2.863,3.2,4.868,5.382s4.308,4.729,5.116,5.651a9.661,9.661,0,0,0,1.691,1.677,39.3,39.3,0,0,0,.143-5.983l-.079-5.983-.7-.6a2.5,2.5,0,0,0-1.309-.6c-.446,0-.609-.135-.609-.5,0-.485.127-.5,3.427-.435,2.806.057,3.428.135,3.428.431,0,.211-.347.433-.833.532a2.8,2.8,0,0,0-1.122.457c-.2.2-.309,2.841-.36,9.093l-.072,8.806h-.722c-.622,0-1.362-.7-5.321-5.03-2.529-2.767-5.481-6.055-6.56-7.307a21.11,21.11,0,0,0-2.149-2.3c-.289-.032-.219,11.155.077,12.217.231.828.389.97,1.37,1.231.79.21,1.109.424,1.109.741,0,.407-.3.445-3.49.445-3.246,0-3.49-.032-3.49-.466,0-.317.235-.512.736-.613,1.522-.3,1.623-.785,1.709-8.144a57.338,57.338,0,0,0-.186-7.609A2.025,2.025,0,0,0,68.24,16.476Zm26.139,0c-.534,0-.7-.118-.7-.5,0-.475.166-.5,3.739-.5s3.739.022,3.739.5c0,.364-.166.5-.623.5a1.881,1.881,0,0,0-1.132.507c-.494.492-.506.737-.436,8.342.068,7.424.1,7.853.556,8.187a2.117,2.117,0,0,0,1.059.352c.409,0,.576.143.576.5,0,.475-.166.5-3.739.5-3.488,0-3.739-.031-3.739-.465,0-.35.245-.5.988-.623,1.475-.235,1.551-.716,1.459-9.3-.073-6.877-.105-7.306-.562-7.638A2.355,2.355,0,0,0,94.379,16.476Zm26.083,0a.664.664,0,0,1-.681-.5c-.126-.48-.007-.5,3.586-.5,3.549,0,3.716.022,3.716.5,0,.382-.166.5-.717.5-1.569,0-1.534.284.841,6.78,1.209,3.307,2.383,6.448,2.608,6.98l.41.968,1.9-5.067c2.241-5.964,2.532-7.067,2.152-8.155a2.568,2.568,0,0,0-2.075-1.507c-.22,0-.386-.214-.386-.5,0-.475.166-.5,3.864-.5s3.864.021,3.864.5c0,.353-.166.5-.576.5-1.048,0-1.51.557-1.36,1.639.155,1.114,4.442,13.085,4.622,12.906.292-.291,5.041-13.178,5.041-13.68,0-.6-.423-.864-1.391-.864-.437,0-.6-.137-.6-.5,0-.469.166-.5,2.992-.5,2.537,0,2.991.059,2.991.386,0,.212-.311.494-.691.625-.854.3-1.069.636-2.141,3.38l-3.274,8.382c-1.33,3.4-2.475,6.339-2.545,6.521s-.482.33-.916.33h-.789l-1.791-4.658c-.985-2.561-2.149-5.6-2.585-6.744-.749-1.966-.812-2.052-1.094-1.491-.164.328-1.347,3.368-2.629,6.756l-2.33,6.16-.87-.074-.87-.074-3.317-8.675a93.413,93.413,0,0,0-3.862-9.253A1.85,1.85,0,0,0,120.462,16.476Zm49.844.105a1.9,1.9,0,0,1-.041-.433.322.322,0,0,1,.042-.188c.051-.065.069-.067.253-.084h0c.673-.064,2.023-.172,3.15-.221l.343-.015h.005c1.24-.056,3.46-.132,4.985-.055,2.927.146,5.008,1.561,5.718,3.9a6.984,6.984,0,0,1-.633,5.929,5.84,5.84,0,0,1-5.3,2.521c-2.231-.065-2.828-.482-3.305-.816-.1-.071-.2-.137-.3-.2V29.9a14.228,14.228,0,0,0,.2,3.371c.212.487.692.786,1.626,1.016a1.773,1.773,0,0,1,.532.2.7.7,0,0,1,.044.672.3.3,0,0,1-.257.089l-4.138-.033-2.495-.007s-.262.05-.36-.055a.536.536,0,0,1-.089-.325.632.632,0,0,1,.136-.342,2.05,2.05,0,0,1,.54-.224c.962-.27,1.379-.556,1.6-1.094.176-.434.177-1.239.175-7.806,0-6.228-.011-7.39-.154-7.724-.211-.495-.741-.626-1.494-.812h0c-.149-.037-.308-.076-.474-.121C170.616,16.711,170.347,16.676,170.306,16.582Zm12.047,5.082a4.821,4.821,0,0,1-1.105,3.642,5.9,5.9,0,0,1-4.681,1.017,3.022,3.022,0,0,1-.922-.335l-.02-.011-.372-.2-.022-3.588c-.013-2.248.01-3.713.063-3.922.048-1.185,1.8-1.333,2.651-1.289C181.6,16.982,182.246,20.062,182.353,21.664Zm-23.526-6.042-.449.171-.976.5-.7,1.755c-.386.965-1.094,2.737-1.571,3.937-.87,2.186-1.444,3.622-2.049,5.121-.178.441-.715,1.784-1.193,2.984s-.956,2.342-1.063,2.538l-.056.1c-.267.5-.732,1.376-1.553,1.508a1.323,1.323,0,0,0-.618.209.4.4,0,0,0-.151.3v.208a.222.222,0,0,0,.11.151.581.581,0,0,0,.223.053l3-.034h3.1s.219.026.3-.045a.351.351,0,0,0,.108-.174v-.219a.631.631,0,0,0-.166-.33,2.053,2.053,0,0,0-.583-.156,1.475,1.475,0,0,1-1.3-1.948c.075-.415.575-1.951,1.137-3.5l.195-.534,3.251-.025c1.788-.014,3.332,0,3.431.021.141.036.339.437.919,1.866.879,2.165.949,2.429.755,2.834l-.038.081a1.8,1.8,0,0,1-1.431,1.23s-.474.016-.592.158a.415.415,0,0,0-.092.305v.217a.41.41,0,0,0,.092.177.248.248,0,0,0,.164.038l2.951-.021h4.149s.163.017.207-.045a.339.339,0,0,0,.053-.136v-.288a.485.485,0,0,0-.1-.238,2.282,2.282,0,0,0-.618-.173,1.933,1.933,0,0,1-1.284-1.1c-.065-.108-.124-.206-.182-.285a14.3,14.3,0,0,1-.87-1.892l-1.656-4.259-1.8-4.631c-.41-1.053-1.188-3.057-1.73-4.453l-.24-.619h0c-.363-.938-.51-1.316-.55-1.367C159.232,15.456,158.827,15.622,158.827,15.622Zm-.193,5.705c-.131-.318-.361-.889-.512-1.269-.274-.69-.378-.849-.463-.706-.025.042-.2.513-.383,1.048-1.2,3.463-1.748,5.022-1.857,5.316a2.236,2.236,0,0,0-.125.423,16.61,16.61,0,0,0,2.655.087c1.46,0,2.655-.018,2.655-.04s-.13-.353-.289-.735-.549-1.336-.866-2.12S158.765,21.645,158.634,21.327Z" transform="translate(-0.039)"/></svg>